<svg xmlns="http://www.w3.org/2000/svg" version="1.1" xmlns:xlink="http://www.w3.org/1999/xlink" xmlns:svgjs="http://svgjs.dev/svgjs" width="100%" height="100%" viewBox="0 0 1000 600"><rect width="1000" height="600" x="0" y="0" fill="#263238"/><g><rect width="333.3333333333333" height="333.3333333333333" rx="13.333333333333334" ry="13.333333333333334" y="319.30089053413275" fill="#b0bec5" transform="matrix(0.4207640195263542,0,0,0.4207640195263542,0,95.52235085699645)" x="297.0786437988281"/><path d="M428.7080747149023 560.967545960267L409.5786363879157 560.967545960267L409.5786363879157 410.9675490190162L460.9245689033152 410.9675490190162Q478.4503417418119 410.9675490190162 489.76191081241024 416.9526577171303Q501.10211676673157 422.9377664152443 506.57176155783105 433.41886585787466Q512.0700432326535 443.87132841678203 512.0700432326535 457.2733899991618L512.0700432326535 457.2733899991618Q512.0700432326535 470.64681469781857 506.57176155783105 480.9274559543877Q501.10211676673157 491.2080972109568 489.8191845798563 496.99274772300964Q478.536252392981 502.77739823506244 461.01047955448433 502.77739823506244L461.01047955448433 502.77739823506244L420.2315571328843 502.77739823506244L420.2315571328843 485.7670893035804L460.1227361590703 485.7670893035804Q472.0070429041293 485.7670893035804 479.19490071861077 482.3020263730933Q486.3827585330922 478.8083265588832 489.70463704496416 472.42230148864667Q493.0265155568361 466.0362764184101 493.0265155568361 457.2733899991618L493.0265155568361 457.2733899991618Q493.0265155568361 448.31004539385225 489.70463704496416 441.72356213755444Q486.3827585330922 435.1084419975337 479.1376269511647 431.44292088098535Q471.89249536923717 427.77739976443706 459.92227797300905 427.77739976443706L459.92227797300905 427.77739976443706L428.7080747149023 427.77739976443706L428.7080747149023 560.967545960267ZM517.9119675121524 560.967545960267L495.7470195105243 560.967545960267L459.52136160088656 493.4131372576304L481.056298160608 493.4131372576304L517.9119675121524 560.967545960267Z " fill="#1e1e1e" transform="matrix(0.4207640195263542,0,0,0.4207640195263542,0,95.52235085699645)"/><path d="M731.9800578538786 558.6745455056971L713.7453005012325 558.6745455056971L713.7453005012325 415.6900260249179L762.689791419338 415.6900260249179Q779.3958864789479 415.6900260249179 790.1784151530426 421.39521208285663Q800.9882413680843 427.10039814079533 806.2020716889757 437.0912981274248Q811.443199550814 447.0549005731072 811.443199550814 459.83014973633834L811.443199550814 459.83014973633834Q811.443199550814 472.5781013586224 806.2020716889757 482.3779185586223Q800.9882413680843 492.1777357586223 790.2330102349367 497.69183902993143Q779.4777791017892 503.2059423012406 762.7716840421792 503.2059423012406L762.7716840421792 503.2059423012406L723.8999857335443 503.2059423012406L723.8999857335443 486.991202978678L761.9254602728199 486.991202978678Q773.2539397658561 486.991202978678 780.1056225435719 483.68820052408194Q786.9573053212878 480.3579005285388 790.1238200711484 474.27054889734103Q793.2903348210092 468.1831972661433 793.2903348210092 459.83014973633834L793.2903348210092 459.83014973633834Q793.2903348210092 451.2860194199038 790.1238200711484 445.0075850020766Q786.9573053212878 438.70185304330226 780.0510274616778 435.20776780207666Q773.1447496020678 431.71368256085105 761.7343774861904 431.71368256085105L761.7343774861904 431.71368256085105L731.9800578538786 431.71368256085105L731.9800578538786 558.6745455056971ZM817.0118979040174 558.6745455056971L795.8836012109813 558.6745455056971L761.3522119129314 494.27964641154705L781.8799627051318 494.27964641154705L817.0118979040174 558.6745455056971ZM881.7889625714265 560.9675389452514L881.7889625714265 560.9675389452514Q867.1847781647414 560.9675389452514 856.2111667040172 554.0612610856415Q845.210257702346 547.1549832260314 839.068310989254 534.6800070132181Q832.9263642761622 522.2050308004048 832.9263642761622 505.69001852742446L832.9263642761622 505.69001852742446Q832.9263642761622 488.90203084497324 839.068310989254 476.37245955026583Q845.210257702346 463.87018579650544 856.2111667040172 456.9366103959484Q867.1847781647414 450.0303325363384 881.7889625714265 450.0303325363384L881.7889625714265 450.0303325363384Q896.4750396009529 450.0303325363384 907.5032461435712 456.9366103959484Q918.5314526861895 463.87018579650544 924.6733993992814 476.37245955026583Q930.8153461123733 488.90203084497324 930.8153461123733 505.69001852742446L930.8153461123733 505.69001852742446Q930.8153461123733 522.2050308004048 924.6733993992814 534.6800070132181Q918.5314526861895 547.1549832260314 907.5032461435712 554.0612610856415Q896.4750396009529 560.9675389452514 881.7889625714265 560.9675389452514ZM881.7889625714265 545.5171307692069L881.7889625714265 545.5171307692069Q892.6260863274152 545.5171307692069 899.6415543508136 539.9484324160037Q906.6297248332647 534.4070316037473 909.987322369755 525.3169504683714Q913.3449199062453 516.2541668739425 913.3449199062453 505.69001852742446L913.3449199062453 505.69001852742446Q913.3449199062453 495.04397755806514 909.987322369755 485.87200379984796Q906.6297248332647 476.7273275825778 899.6415543508136 471.1040341474803Q892.6260863274152 465.4807407123829 881.7889625714265 465.4807407123829L881.7889625714265 465.4807407123829Q871.033731438279 465.4807407123829 864.1274535786689 471.1040341474803Q857.221175719059 476.7273275825778 853.8635781825687 485.8447062589009Q850.5059806460785 494.9620849352239 850.5059806460785 505.69001852742446L850.5059806460785 505.69001852742446Q850.5059806460785 516.2541668739425 853.8635781825687 525.3169504683714Q857.221175719059 534.4070316037473 864.1274535786689 539.9484324160037Q871.033731438279 545.5171307692069 881.7889625714265 545.5171307692069ZM1005.7743935530415 560.9675389452514L1005.7743935530415 560.9675389452514Q995.5924107797824 560.9675389452514 989.3685714438492 557.4734537040258Q983.1174345669691 553.9793684628003 979.7598370304789 549.5025717474798Q976.4022394939886 545.0530725731066 974.5733042505345 542.0776406098755L974.5733042505345 542.0776406098755L972.6624763842393 542.0776406098755L972.6624763842393 558.6745455056971L955.9563813246294 558.6745455056971L955.9563813246294 415.6900260249179L973.2357247441279 415.6900260249179L973.2357247441279 468.5653628394024L974.5733042505345 468.5653628394024Q976.4022394939886 465.6718234990124 979.6779444076377 461.30421694748037Q982.9263517803396 456.9366103959484 989.0682984934314 453.4971202366169Q995.2102452065234 450.0303325363384 1005.6652033892531 450.0303325363384L1005.6652033892531 450.0303325363384Q1019.1228910761612 450.0303325363384 1029.3321713903672 456.74552760931886Q1039.5414517045733 463.4607226822993 1045.3558279263002 475.90840135416556Q1051.170204148027 488.3287824850847 1051.170204148027 505.30785295416536L1051.170204148027 505.30785295416536Q1051.170204148027 522.3961135870343 1045.4104230081944 534.8710897998476Q1039.6506418683616 547.3460660126609 1029.4140640132084 554.1704512494298Q1019.2047836990024 560.9675389452514 1005.7743935530415 560.9675389452514ZM1003.1811271630693 545.5171307692069L1003.1811271630693 545.5171307692069Q1013.2539197725399 545.5171307692069 1020.0237099274146 540.1122176616861Q1026.793500082289 534.6800070132181 1030.2056927006736 525.5080332550009Q1033.590587778111 516.3633570377308 1033.590587778111 505.11677016753583L1033.590587778111 505.11677016753583Q1033.590587778111 493.9793734611292 1030.2329902416204 485.0257800304886Q1026.8753927051305 476.04488905890094 1020.1056025502559 470.7764636561154Q1013.3631099363282 465.4807407123829 1003.1811271630693 465.4807407123829L1003.1811271630693 465.4807407123829Q993.2994173402282 465.4807407123829 986.5842222672476 470.4761907056976Q979.8690271942672 475.4716406990123 976.4568345758828 484.3433415068117Q973.0446419574984 493.21504231461114 973.0446419574984 505.11677016753583L973.0446419574984 505.11677016753583Q973.0446419574984 517.0184980204606 976.511429657777 526.1358766967837Q979.9509198171085 535.2532553731066 986.720709971983 540.3851930711569Q993.4905001268577 545.5171307692069 1003.1811271630693 545.5171307692069ZM1119.9600073346564 560.9675389452514L1119.9600073346564 560.9675389452514Q1105.3831204689182 560.9675389452514 1094.4095090081942 554.0612610856415Q1083.4086000065229 547.1549832260314 1077.2666532934309 534.6800070132181Q1071.124706580339 522.2050308004048 1071.124706580339 505.69001852742446L1071.124706580339 505.69001852742446Q1071.124706580339 488.90203084497324 1077.2666532934309 476.37245955026583Q1083.4086000065229 463.87018579650544 1094.4095090081942 456.9366103959484Q1105.3831204689182 450.0303325363384 1119.9600073346564 450.0303325363384L1119.9600073346564 450.0303325363384Q1134.6460843641828 450.0303325363384 1145.7015884477482 456.9366103959484Q1156.7297949903664 463.87018579650544 1162.8717417034584 476.37245955026583Q1169.0136884165504 488.90203084497324 1169.0136884165504 505.69001852742446L1169.0136884165504 505.69001852742446Q1169.0136884165504 522.2050308004048 1162.8717417034584 534.6800070132181Q1156.7297949903664 547.1549832260314 1145.7015884477482 554.0612610856415Q1134.6460843641828 560.9675389452514 1119.9600073346564 560.9675389452514ZM1119.9600073346564 545.5171307692069L1119.9600073346564 545.5171307692069Q1130.8244286315921 545.5171307692069 1137.8125991140437 539.9484324160037Q1144.8280671374418 534.4070316037473 1148.185664673932 525.3169504683714Q1151.5432622104222 516.2541668739425 1151.5432622104222 505.69001852742446L1151.5432622104222 505.69001852742446Q1151.5432622104222 495.04397755806514 1148.185664673932 485.87200379984796Q1144.8280671374418 476.7273275825778 1137.8125991140437 471.1040341474803Q1130.8244286315921 465.4807407123829 1119.9600073346564 465.4807407123829L1119.9600073346564 465.4807407123829Q1109.232073742456 465.4807407123829 1102.3257958828458 471.1040341474803Q1095.3922204822888 476.7273275825778 1092.0346229457987 485.8447062589009Q1088.6770254093085 494.9620849352239 1088.6770254093085 505.69001852742446L1088.6770254093085 505.69001852742446Q1088.6770254093085 516.2541668739425 1092.0346229457987 525.3169504683714Q1095.3922204822888 534.4070316037473 1102.3257958828458 539.9484324160037Q1109.232073742456 545.5171307692069 1119.9600073346564 545.5171307692069ZM1180.915416269475 451.3952095836922L1236.3840194739314 451.3952095836922L1236.3840194739314 466.16317923605976L1180.915416269475 466.16317923605976L1180.915416269475 451.3952095836922ZM1197.0482629691965 532.1959307870343L1197.0482629691965 425.8447112572299L1214.3003088477476 425.8447112572299L1214.3003088477476 530.8310537396806Q1214.3003088477476 538.0376045497084 1217.2484432700317 541.3406070043045Q1220.1692801513689 544.6709069998476 1226.9663678471907 544.6709069998476L1226.9663678471907 544.6709069998476Q1228.6042203040151 544.6709069998476 1231.142891612093 544.2887414265886Q1233.681562920171 543.9065758533295 1235.8107711140428 543.5244102800705L1235.8107711140428 543.5244102800705L1239.3594514371625 558.1012971458085Q1236.6569948834021 559.0567110789561 1233.272099805965 559.5480668160035Q1229.8599071875806 560.0121250121038 1226.5023096510904 560.0121250121038L1226.5023096510904 560.0121250121038Q1212.580563768082 560.0121250121038 1204.8007645981656 552.6690864973407Q1197.0482629691965 545.3260479825774 1197.0482629691965 532.1959307870343L1197.0482629691965 532.1959307870343ZM1275.7197759786666 558.6745455056971L1258.4677301001152 558.6745455056971L1258.4677301001152 451.3952095836922L1275.7197759786666 451.3952095836922L1275.7197759786666 558.6745455056971ZM1267.175645662232 433.8155932137758L1267.175645662232 433.8155932137758Q1262.2893858327056 433.8155932137758 1258.740705509586 430.45799567728557Q1255.1920251864663 427.10039814079533 1255.1920251864663 422.40522109789845L1255.1920251864663 422.40522109789845Q1255.1920251864663 417.60085389121326 1258.740705509586 414.2978514366171Q1262.2893858327056 410.967551441074 1267.175645662232 410.967551441074L1267.175645662232 410.967551441074Q1272.1710956555469 410.967551441074 1275.7197759786666 414.2978514366171Q1279.2684563017865 417.60085389121326 1279.2684563017865 422.40522109789845L1279.2684563017865 422.40522109789845Q1279.2684563017865 427.10039814079533 1275.7197759786666 430.45799567728557Q1272.1710956555469 433.8155932137758 1267.175645662232 433.8155932137758ZM1349.7234094861874 560.9675389452514L1349.7234094861874 560.9675389452514Q1335.119225079502 560.9675389452514 1324.1456136187776 554.0612610856415Q1313.1447046171065 547.1549832260314 1307.0027579040147 534.6800070132181Q1300.8608111909227 522.2050308004048 1300.8608111909227 505.69001852742446L1300.8608111909227 505.69001852742446Q1300.8608111909227 488.90203084497324 1307.0027579040147 476.37245955026583Q1313.1447046171065 463.87018579650544 1324.1456136187776 456.9366103959484Q1335.119225079502 450.0303325363384 1349.7234094861874 450.0303325363384L1349.7234094861874 450.0303325363384Q1357.5032086561037 450.0303325363384 1364.4094865157135 452.0503505664219Q1371.3157643753234 454.0703685965055 1377.0209504332624 457.8647267881489Q1382.726136491201 461.65908497979234 1386.8480651742093 467.1731882511015Q1390.9972913981646 472.6872915224107 1393.1810946739306 479.702759545809L1393.1810946739306 479.702759545809L1376.5841897781088 484.3979365887059Q1375.4376930583317 480.27600790569755 1373.035509454989 476.809220205419Q1370.6333258516465 473.36973004608757 1367.2211332332622 470.8037611970625Q1363.836238155825 468.2650898889845 1359.4140365223989 466.8729153006837Q1354.9918348889728 465.4807407123829 1349.7234094861874 465.4807407123829L1349.7234094861874 465.4807407123829Q1338.9681783530395 465.4807407123829 1332.0619004934297 471.1040341474803Q1325.1556226338198 476.7273275825778 1321.7980250973296 485.8447062589009Q1318.440427560839 494.9620849352239 1318.440427560839 505.69001852742446L1318.440427560839 505.69001852742446Q1318.440427560839 516.2541668739425 1321.7980250973296 525.3169504683714Q1325.1556226338198 534.4070316037473 1332.0619004934297 539.9484324160037Q1338.9681783530395 545.5171307692069 1349.7234094861874 545.5171307692069L1349.7234094861874 545.5171307692069Q1355.101025052761 545.5171307692069 1359.6051193090284 544.097658639959Q1364.1092135652957 542.6508889697641 1367.6305963474683 540.0030274978978Q1371.1246815886939 537.3824635669786 1373.5268651920364 533.7245930800705Q1375.9290487953795 530.0667225931625 1377.0755455151566 525.7537111235247L1377.0755455151566 525.7537111235247L1393.5905577881367 530.4488881664215Q1391.461349594265 537.6554389764493 1387.2848258293625 543.2787324115468Q1383.10830206446 548.8747283056971 1377.3485209246273 552.8601692839702Q1371.5887397847941 556.8456102622431 1364.600569302343 558.9202233742208Q1357.5851012789449 560.9675389452514 1349.7234094861874 560.9675389452514ZM1454.7916445914793 560.9675389452514L1454.7916445914793 560.9675389452514Q1443.7634380488607 560.9675389452514 1435.1920101914793 557.7737266544436Q1426.5932847931504 554.5526168226888 1421.0245864399471 548.2195873229673Q1415.455888086744 541.886557823246 1413.5450602204487 532.6599889831346L1413.5450602204487 532.6599889831346L1429.9508823296405 528.7291430867558Q1432.2438757691953 537.5735463536081 1438.6315003508107 541.6954750366165Q1445.0191249324262 545.8174037196247 1454.6005618048493 545.8174037196247L1454.6005618048493 545.8174037196247Q1465.8471486750445 545.8174037196247 1472.5077486661307 541.0130365129396Q1479.168348657217 536.2086693062543 1479.168348657217 529.6026643970622L1479.168348657217 529.6026643970622Q1479.168348657217 524.0339660438589 1475.2920978427323 520.3487980160037Q1471.4158470282478 516.6363324472015 1463.444965071702 514.8073972037475L1463.444965071702 514.8073972037475L1445.5923732923147 510.60357589789794Q1431.0154864265764 507.1367881976194 1423.89082823939 499.90293984664453Q1416.7934675931506 492.6417939547226 1416.7934675931506 481.3133144616864L1416.7934675931506 481.3133144616864Q1416.7934675931506 472.11404316252214 1421.9800003730948 465.0712775981768Q1427.1665331530394 458.0012144928843 1436.147424124627 454.01577351461134Q1445.1010175552674 450.0303325363384 1456.5386872120916 450.0303325363384L1456.5386872120916 450.0303325363384Q1467.5668937547102 450.0303325363384 1475.2920978427323 453.36063253188155Q1483.0173019307545 456.66363498647763 1487.8762642193342 462.4780112082046Q1492.7079289669664 468.2650898889845 1495.110112570309 475.8538062722714L1495.110112570309 475.8538062722714L1479.4686216076348 479.8938423324385Q1477.2575207909217 474.13406119260566 1472.1255830928717 469.4115866087617Q1466.9936453948217 464.71640956586475 1456.6205798349333 464.71640956586475L1456.6205798349333 464.71640956586475Q1447.0391429625097 464.71640956586475 1440.6515183808942 469.13861119929095Q1434.2638937992783 473.5608128327171 1434.2638937992783 480.27600790569755L1434.2638937992783 480.27600790569755Q1434.2638937992783 486.22687183215993 1438.5769052689166 489.83014723717383Q1442.9172142795014 493.40612510124066 1452.307568365295 495.6172259179537L1452.307568365295 495.6172259179537L1468.5223076878578 499.46617919149134Q1483.1264920945432 502.9056693508228 1490.1146625769943 510.16681524274475Q1497.1301306003925 517.4006635937196 1497.1301306003925 528.4561676772851L1497.1301306003925 528.4561676772851Q1497.1301306003925 537.8465217630788 1491.807110115713 545.189560277842Q1486.4840896310334 552.5325987926053 1476.9299502995568 556.7637176394019Q1467.3758109680807 560.9675389452514 1454.7916445914793 560.9675389452514ZM1616.6114673257398 431.7955751836923L1571.5978223040133 431.7955751836923L1571.5978223040133 415.6900260249179L1679.6687869134835 415.6900260249179L1679.6687869134835 431.7955751836923L1634.846224678386 431.7955751836923L1634.846224678386 558.6745455056971L1616.6114673257398 558.6745455056971L1616.6114673257398 431.7955751836923ZM1794.3457564321457 558.6745455056971L1706.3384844187758 558.6745455056971L1706.3384844187758 415.6900260249179L1793.4722351218393 415.6900260249179L1793.4722351218393 431.7955751836923L1724.573241771422 431.7955751836923L1724.573241771422 478.44707266224356L1788.7770580789424 478.44707266224356L1788.7770580789424 494.57991936196487L1724.573241771422 494.57991936196487L1724.573241771422 542.5416988059758L1794.3457564321457 542.5416988059758L1794.3457564321457 558.6745455056971ZM1882.3530284455155 560.5853733719923L1882.3530284455155 560.5853733719923Q1864.0090809290814 560.5853733719923 1849.6778719318668 551.713672564193Q1835.3193653937055 542.8419717563936 1827.1028055686356 526.3815545653074Q1818.9135432845133 509.9211373742211 1818.9135432845133 487.26417838814876L1818.9135432845133 487.26417838814876Q1818.9135432845133 464.52532677923523 1827.1028055686356 448.06490958814896Q1835.3193653937055 431.60449239706276 1849.6778719318668 422.6781965073692Q1864.0090809290814 413.75190061767563 1882.3530284455155 413.75190061767563L1882.3530284455155 413.75190061767563Q1893.1901522015046 413.75190061767563 1902.826184155822 416.91841536753634Q1912.4622161101393 420.08493011739705 1920.1601226572147 426.1995792895419Q1927.8307316633427 432.2869309207396 1932.9626693613932 440.96754894190946Q1938.0946070594432 449.64816696307935 1940.0054349257384 460.70367104664473L1940.0054349257384 460.70367104664473L1921.7979751140392 460.70367104664473Q1920.242015280056 453.3060374499874 1916.5568472522004 447.73733909678407Q1912.8716792243458 442.1686407435808 1907.5213611987188 438.3196874700432Q1902.1983407140392 434.49803173745266 1895.7834185914767 432.55990633021037Q1889.341198927967 430.6490784639151 1882.3530284455155 430.6490784639151L1882.3530284455155 430.6490784639151Q1869.4685891184963 430.6490784639151 1859.122821099555 437.17319075026603Q1848.7497555396662 443.697303036617 1842.7169989903628 456.33606449511274Q1836.6569449001122 468.9475284126614 1836.6569449001122 487.26417838814876L1836.6569449001122 487.26417838814876Q1836.6569449001122 505.4989357407949 1842.7442965313098 518.1376971992906Q1848.8589457034545 530.7491611168393 1859.2047137223963 537.2186783212961Q1869.5777792822846 543.7154930667 1882.3530284455155 543.7154930667L1882.3530284455155 543.7154930667Q1889.341198927967 543.7154930667 1895.7834185914767 541.7227725775635Q1902.1983407140392 539.7573496293742 1907.5213611987188 535.9902889786777Q1912.8716792243458 532.1959307870343 1916.5568472522004 526.5726373519369Q1920.242015280056 520.9493439168393 1921.7979751140392 513.6609004839704L1921.7979751140392 513.6609004839704L1940.0054349257384 513.6609004839704Q1938.2037972232315 524.6072144037474 1933.071859525181 533.2332373430231Q1927.939921827131 541.886557823246 1920.242015280056 548.0285045363378Q1912.571406273928 554.1704512494298 1902.9353743196102 557.3915610811846Q1893.2720448243458 560.5853733719923 1882.3530284455155 560.5853733719923ZM1986.2747668310303 558.6745455056971L1968.0400094783845 558.6745455056971L1968.0400094783845 415.6900260249179L1986.2747668310303 415.6900260249179L1986.2747668310303 477.4916587290959L2061.3157068945397 477.4916587290959L2061.3157068945397 415.6900260249179L2079.550464247186 415.6900260249179L2079.550464247186 558.6745455056971L2061.3157068945397 558.6745455056971L2061.3157068945397 493.5972078878702L1986.2747668310303 493.5972078878702L1986.2747668310303 558.6745455056971Z " fill="#b0bec5" transform="matrix(0.4207640195263542,0,0,0.4207640195263542,0,95.52235085699645)"/></g></svg>